# xmcd
#
# Track frame offsets: 
#        150
#        23234
#        39319
#        66889
#        84162
#        98395
#        122060
#        138015
#        162007
#        179207
#        198612
#        225932
#
# Disc length: 3294 seconds
#
# Revision: 0
# Processed by: cddbd v1.5.1PL0 Copyright (c) Steve Scherf et al.
# Submitted via: ExactAudioCopy v0.90b4
#
DISCID=8d0cdc0c
DTITLE=Terry Hanck - Night Train
DYEAR=2005
DGENRE=Blues
TTITLE0=Night Train
TTITLE1=Junior's Walk
TTITLE2=Smilin' Through My Tears
TTITLE3=All Around The World
TTITLE4=Ooh Lawdy My Baby
TTITLE5=Run Run Baby
TTITLE6=Wish I Had Never
TTITLE7=Somebody Have Mercy
TTITLE8=Big Blue Diamonds
TTITLE9=Let The Four Winds Blow
TTITLE10=Another Light
TTITLE11=Have Mercy Baby
EXTD=
EXTT0=
EXTT1=
EXTT2=
EXTT3=
EXTT4=
EXTT5=
EXTT6=
EXTT7=
EXTT8=
EXTT9=
EXTT10=
EXTT11=
PLAYORDER=
